<svg xmlns="http://www.w3.org/2000/svg" xmlns:xlink="http://www.w3.org/1999/xlink" width="607.5882352941176" height="607.5882352941176" viewBox="0 0 607.5882352941176 607.5882352941176" fill="none">
<g filter="url(#filter_f6ee33f1-b43d-48c7-9d26-14a96909bf7a)">
<circle cx="303.7941176470588" cy="303.7941176470588" r="193.5"   fill="#C1CBFF" >
</circle>
</g>
<circle  cx="303.7941176470588" cy="303.7941176470588" r="221.5"    fill="#EFF2FF" >
</circle>
<path fill-rule="evenodd"  fill="rgba(255, 255, 255, 1)"  d="M303.794 525.294C426.125 525.294 525.294 426.125 525.294 303.794C525.294 181.463 426.125 82.2941 303.794 82.2941C181.463 82.2941 82.2941 181.463 82.2941 303.794C82.2941 426.125 181.463 525.294 303.794 525.294ZM303.794 94.2941C419.498 94.2941 513.294 188.09 513.294 303.794C513.294 419.498 419.498 513.294 303.794 513.294C188.09 513.294 94.2941 419.498 94.2941 303.794C94.2941 188.09 188.09 94.2941 303.794 94.2941Z">
</path>
<g  mask="url(#mask-125f4da1-89bb-43ae-8067-5541c212360f)">
<path d="M265.294 530.864L307.788 530.864L368.746 235.721L328.003 227.294L265.294 530.864Z"   fill="#4D64DE" >
</path>
<path d="M360.294 234.294L368.794 235.794L361.294 230.294L360.294 234.294Z"   fill="#4D64DE" >
</path>
<path d="M258.264 525.094L300.758 525.094L361.294 230.294L320.973 221.524L258.264 525.094Z"   fill="url(#linear_fill_a016e27a-d3da-49bd-885a-9010e05bc385)" >
</path>
<path d="M441.278 431.585L184.564 378.554L177.294 372.034L204.435 282.388L216.348 283.169L197.978 273.382L208.484 220.992L465.198 274.023L472.484 280.559L461.837 332.089L441.497 332.464L452.691 334.606L459.961 341.125L441.278 431.585Z"   fill="#4D64DE" >
</path>
<path d="M434.008 425.066L177.294 372.034L197.165 275.853L209.079 276.634L199.135 266.3L208.484 220.992L465.198 274.023L454.552 325.554L434.227 325.929L452.691 334.606L434.008 425.066Z"   fill="url(#linear_fill_17802331-0019-4e54-ada4-1c116732b66b)" >
</path>
<path d="M439.714 325.398C439.714 325.398 439.511 325.398 439.105 325.398L437.307 325.273L430.396 324.71L425.409 324.272L419.484 323.568C415.247 323.037 410.384 322.537 405.084 321.661L396.72 320.395C393.812 319.941 390.81 319.347 387.699 318.831C381.446 317.768 374.832 316.377 367.859 314.97C353.929 312.015 338.686 308.434 322.77 304.385C290.955 296.193 262.282 288.313 241.363 283.201C236.157 281.872 231.404 280.793 227.292 279.793C223.18 278.792 219.475 277.979 216.599 277.338L209.845 275.775L208.093 275.352C207.89 275.307 207.691 275.245 207.499 275.165C207.705 275.173 207.91 275.205 208.109 275.259L209.891 275.587L216.677 276.947C219.632 277.541 223.243 278.307 227.402 279.261C231.56 280.215 236.329 281.246 241.566 282.529C262.516 287.469 291.236 295.255 323.036 303.431C338.952 307.481 354.164 311.092 368.063 314.094C375.035 315.517 381.633 316.939 387.871 318.034C390.998 318.597 393.984 319.191 396.877 319.597L405.21 320.926C410.51 321.849 415.341 322.396 419.577 322.974L425.487 323.756L430.459 324.272L437.354 325.022L439.136 325.241L439.714 325.398Z"   fill="#4D64DE" fill-opacity="0.1">
</path>
<path d="M452.613 317.19C452.413 317.077 452.22 316.951 452.035 316.814L450.472 315.642C449.049 314.626 447.016 313.015 444.218 311.108C436.512 305.701 428.482 300.773 420.172 296.349C407.835 289.831 394.924 284.461 381.603 280.308C365.273 275.292 348.416 272.186 331.37 271.053C313.219 269.724 295.896 271.491 280.121 271.85C272.64 272.115 265.15 271.964 257.685 271.397C241.749 270.086 226.118 266.282 211.361 260.125C208.234 258.827 205.936 257.733 204.357 256.998L202.575 256.091L201.981 255.763C202.203 255.82 202.419 255.904 202.622 256.013L204.451 256.826C206.014 257.545 208.406 258.592 211.502 259.828C220.238 263.328 229.269 266.043 238.487 267.942C244.844 269.249 251.277 270.158 257.748 270.662C265.183 271.18 272.641 271.3 280.089 271.022C295.817 270.615 313.187 268.817 331.433 270.146C348.554 271.288 365.482 274.436 381.869 279.527C395.224 283.744 408.158 289.198 420.501 295.818C428.799 300.28 436.795 305.283 444.437 310.795C447.141 312.734 449.127 314.407 450.534 315.485L452.098 316.736C452.281 316.874 452.453 317.025 452.613 317.19L452.613 317.19Z"   fill="#4D64DE" fill-opacity="0.1">
</path>
<path d="M328.524 248.258C328.138 248.437 327.734 248.579 327.32 248.68L323.803 249.728C322.239 250.197 320.41 250.712 318.206 251.213C316.001 251.713 313.515 252.401 310.701 252.901C307.887 253.402 304.854 254.074 301.524 254.465C298.194 254.856 294.66 255.403 290.924 255.825C282.788 256.611 274.613 256.93 266.441 256.779C258.269 256.561 250.116 255.888 242.02 254.762C238.299 254.168 234.766 253.652 231.482 252.933C228.199 252.213 225.229 251.588 222.399 250.9C219.569 250.212 217.161 249.509 214.988 248.883C212.815 248.258 210.955 247.679 209.454 247.163L205.983 245.96C205.575 245.836 205.177 245.68 204.795 245.491C205.22 245.54 205.64 245.634 206.045 245.772L209.563 246.804C211.127 247.273 212.94 247.82 215.129 248.367C217.318 248.915 219.819 249.665 222.555 250.243C225.291 250.822 228.356 251.572 231.639 252.151C234.922 252.729 238.44 253.323 242.145 253.886C250.204 254.955 258.314 255.597 266.441 255.809C274.575 255.953 282.711 255.661 290.814 254.934C294.535 254.527 298.084 254.199 301.383 253.667C304.682 253.136 307.746 252.682 310.545 252.104C313.343 251.525 315.845 251.025 318.049 250.54C320.254 250.056 322.146 249.618 323.678 249.212L327.227 248.352C327.654 248.272 328.09 248.241 328.524 248.258L328.524 248.258Z"   fill="#4D64DE" fill-opacity="0.1">
</path>
<path d="M260.187 339.969C260.187 339.969 260.593 340.187 261.344 340.656L264.721 342.736C267.691 344.534 272.038 347.285 277.853 350.397C284.863 354.291 292.375 357.2 300.179 359.042C302.534 359.566 304.921 359.931 307.324 360.137C309.84 360.451 312.387 359.899 314.547 358.573C315.596 357.802 316.356 356.701 316.705 355.446C317.044 354.15 317.044 352.788 316.705 351.491C315.886 348.779 314.143 346.44 311.78 344.878C292.206 331.901 264.643 322.443 233.452 321.567C229.559 321.442 225.635 321.442 221.633 321.567C217.63 321.692 213.566 322.63 210.892 325.601C210.217 326.302 209.688 327.13 209.337 328.037C208.985 328.944 208.818 329.912 208.844 330.885C208.989 332.873 209.755 334.765 211.033 336.294C213.55 339.515 217.177 341.751 220.663 344.112C234.734 353.648 249.634 363.123 266.394 369.689C283.153 376.256 300.961 379.21 317.737 376.725C321.875 376.112 325.955 375.15 329.931 373.848C333.847 372.741 337.36 370.526 340.047 367.469C342.448 364.29 343.719 360.4 343.658 356.416C343.669 352.511 342.804 348.654 341.125 345.128C337.715 338.363 332.484 332.683 326.023 328.728C319.94 324.968 313.34 322.118 306.433 320.269C299.788 318.346 293.206 316.971 286.921 315.579L268.833 311.483L214.253 299.085L199.432 295.661L195.586 294.754C194.711 294.551 194.273 294.41 194.273 294.41L195.602 294.66L199.479 295.474L214.347 298.725L268.989 310.826L287.078 314.86C293.331 316.283 299.96 317.627 306.652 319.55C313.642 321.404 320.321 324.275 326.476 328.071C333.083 332.099 338.433 337.893 341.923 344.8C343.658 348.442 344.555 352.428 344.549 356.463C344.619 360.648 343.288 364.737 340.766 368.079C337.972 371.279 334.313 373.603 330.228 374.77C326.199 376.104 322.061 377.082 317.862 377.694C300.883 380.227 282.856 377.209 266.05 370.627C249.243 364.045 234.234 354.571 220.194 344.987C216.724 342.579 213.034 340.297 210.376 336.904C208.972 335.226 208.134 333.146 207.984 330.963C207.957 329.873 208.146 328.788 208.54 327.77C208.935 326.753 209.527 325.825 210.282 325.038C211.73 323.49 213.557 322.347 215.582 321.723C217.548 321.131 219.581 320.795 221.633 320.723C225.666 320.566 229.622 320.582 233.53 320.723C264.908 321.676 292.55 331.213 312.249 344.377C314.73 346.038 316.551 348.517 317.393 351.382C317.76 352.786 317.76 354.261 317.393 355.665C317.008 357.041 316.164 358.244 315.001 359.074C312.725 360.477 310.041 361.067 307.387 360.746C304.952 360.521 302.534 360.139 300.148 359.605C292.315 357.709 284.785 354.731 277.775 350.756C271.959 347.629 267.644 344.784 264.705 342.939C263.267 342.017 262.157 341.376 261.391 340.781C260.625 340.187 260.187 339.969 260.187 339.969Z" fill-rule="evenodd"  fill="#4D64DE" fill-opacity="0.1">
</path>
<path d="M447.626 356.65C447.098 356.593 446.575 356.493 446.062 356.353C445.093 356.087 443.639 355.806 441.779 355.477C436.466 354.717 431.069 354.76 425.769 355.602C417.925 356.922 410.315 359.377 403.178 362.888C394.492 367.319 386.105 372.312 378.069 377.834C369.989 383.387 361.519 388.351 352.726 392.687C345.473 396.141 337.732 398.461 329.775 399.566C324.402 400.289 318.948 400.135 313.625 399.112C312.185 398.827 310.765 398.451 309.372 397.987C308.877 397.855 308.396 397.677 307.934 397.455C308.437 397.534 308.933 397.649 309.419 397.799C310.388 398.081 311.827 398.393 313.687 398.753C318.98 399.618 324.374 399.665 329.681 398.894C337.546 397.709 345.188 395.347 352.351 391.889C361.08 387.527 369.496 382.565 377.537 377.037C385.613 371.492 394.054 366.498 402.802 362.091C410.025 358.572 417.736 356.158 425.675 354.93C431.04 354.137 436.496 354.2 441.841 355.118C443.325 355.365 444.793 355.704 446.234 356.134C446.713 356.262 447.179 356.435 447.626 356.65L447.626 356.65Z"   fill="#4D64DE" fill-opacity="0.1">
</path>
<path d="M442.873 382.103C442.873 382.197 441.653 381.697 439.402 381.196C436.222 380.506 432.943 380.4 429.724 380.884C424.956 381.691 420.315 383.12 415.919 385.136C410.485 387.511 405.224 390.264 400.176 393.375C394.735 396.596 389.544 399.739 384.542 402.131C380.153 404.3 375.532 405.963 370.768 407.087C367.548 407.819 364.25 408.144 360.949 408.056C360.054 408.034 359.161 407.956 358.276 407.821C357.962 407.806 357.652 407.749 357.354 407.649C357.354 407.54 358.651 407.649 360.949 407.649C364.212 407.602 367.459 407.182 370.627 406.399C375.31 405.19 379.849 403.481 384.166 401.302C389.075 398.894 394.219 395.752 399.675 392.515C404.766 389.373 410.086 386.619 415.591 384.276C420.069 382.264 424.804 380.88 429.662 380.164C432.954 379.729 436.3 379.941 439.511 380.79C440.378 381.025 441.228 381.312 442.06 381.65C442.351 381.762 442.625 381.914 442.873 382.103L442.873 382.103Z"   fill="#4D64DE" fill-opacity="0.1">
</path>
<path d="M360.246 252.558C360.246 252.823 350.349 250.885 338.264 248.227C326.179 245.569 316.376 243.208 316.486 242.958C316.595 242.708 326.382 244.631 338.467 247.289C350.553 249.947 360.246 252.307 360.246 252.558Z"   fill="#4D64DE" fill-opacity="0.1">
</path>
<path d="M289.126 311.874L281.09 310.123L278.839 320.473L263.908 317.237L266.159 306.871L237.564 300.617L239.737 290.643L271.365 262.157L287.219 265.597L258.295 292.425L269.239 294.801L271.24 285.609L285.702 288.735L283.701 297.944L291.737 299.695L289.126 311.874Z"   fill="#FFFFFF" >
</path>
<path d="M343.533 306.23C339.64 324.084 327.352 332.183 313.609 329.181C299.867 326.179 291.971 313.703 295.864 295.849C299.742 277.963 312.03 269.911 325.851 272.913C339.671 275.915 347.426 288.375 343.533 306.23ZM311.233 299.194C313.765 287.844 318.284 284.373 323.146 285.436C328.008 286.499 330.635 291.534 328.165 302.884C325.694 314.25 321.285 317.752 316.345 316.673C311.405 315.595 308.7 310.545 311.233 299.194Z" fill-rule="evenodd"  fill="#FFFFFF" >
</path>
<path d="M396.205 335.185L388.169 333.434L385.917 343.799L370.971 340.5L373.238 330.135L344.643 323.881L346.816 313.906L378.429 285.421L394.282 288.907L365.374 315.72L376.318 318.112L378.319 308.904L392.765 312.03L390.764 321.223L398.8 322.974L396.205 335.185Z"   fill="#FFFFFF" >
</path>
<path d="M277.682 350.24L276.884 353.633L260.609 349.881L265.69 328.18L281.543 331.886L280.746 335.263L268.942 332.495L267.613 338.139L278.088 340.61L277.322 343.924L266.831 341.469L265.424 347.457L277.682 350.24Z"   fill="#FFFFFF" >
</path>
<path d="M296.599 350.663L299.929 358.964L295.598 358.011L292.659 350.616C292.374 350.576 292.092 350.519 291.815 350.444L286.906 349.302L285.421 355.556L281.387 354.618L286.484 332.902L295.411 334.997C301.117 336.342 303.978 340.078 302.853 344.893C302.566 346.398 301.804 347.772 300.678 348.81C299.552 349.849 298.122 350.498 296.599 350.663ZM287.703 345.988L289.736 337.327L294.426 338.437C297.959 339.265 299.429 341.188 298.788 343.955C298.147 346.723 295.927 347.911 292.393 347.082L287.703 345.988Z" fill-rule="evenodd"  fill="#FFFFFF" >
</path>
<path d="M319.19 355.994L322.505 364.296L318.268 363.326L315.329 355.931C315.044 355.889 314.763 355.832 314.485 355.759L309.591 354.571L308.028 360.903L303.994 359.949L309.075 338.233L318.018 340.328C323.724 341.673 326.57 345.409 325.444 350.225C325.16 351.731 324.399 353.105 323.272 354.145C322.146 355.184 320.714 355.832 319.19 355.994ZM315.079 352.398L310.388 351.304L312.421 342.642L317.111 343.752C320.644 344.581 322.098 346.504 321.457 349.271C320.816 352.038 318.612 353.227 315.079 352.398Z" fill-rule="evenodd"  fill="#FFFFFF" >
</path>
<path d="M351.131 359.574C349.615 366.015 343.549 369.58 336.826 368.001C330.103 366.422 326.242 360.512 327.742 354.086C329.306 347.676 335.325 344.096 342.048 345.675C348.77 347.254 352.648 353.132 351.131 359.574ZM339.699 349.039C341.245 349.088 342.741 349.594 343.999 350.493C345.256 351.393 346.219 352.645 346.765 354.091C347.311 355.538 347.416 357.114 347.066 358.62C346.862 359.635 346.452 360.597 345.863 361.448C345.273 362.298 344.516 363.019 343.637 363.567C342.759 364.114 341.778 364.477 340.754 364.632C339.731 364.786 338.687 364.73 337.686 364.467C336.18 364.118 334.811 363.33 333.753 362.203C332.694 361.075 331.994 359.66 331.741 358.134C331.487 356.609 331.691 355.043 332.328 353.634C332.964 352.225 334.005 351.036 335.317 350.218C336.629 349.401 338.154 348.99 339.699 349.039Z" fill-rule="evenodd"  fill="#FFFFFF" >
</path>
<path d="M368.079 367.423L371.409 375.724L367.078 374.771L364.139 367.376L363.279 367.204L358.386 366.062L356.9 372.316L352.867 371.378L357.963 349.662L366.891 351.757C372.597 353.102 375.458 356.838 374.332 361.654C374.044 363.157 373.281 364.529 372.155 365.568C371.03 366.606 369.601 367.256 368.079 367.423ZM363.873 363.842L359.183 362.732L361.215 354.087L365.906 355.181C369.439 356.01 370.909 357.948 370.268 360.715C369.627 363.483 367.422 364.671 363.873 363.842Z" fill-rule="evenodd"  fill="#FFFFFF" >
</path>
<path d="M420.241 170.317C421.015 164.738 413.095 160.149 407.129 159.667C404.297 159.446 401.346 159.876 398.658 158.95C392.836 156.93 390.515 149.448 384.838 147.063C380.589 145.29 375.659 146.867 371.581 148.927C367.503 150.986 363.399 153.58 358.796 153.88C354.862 154.127 350.443 152.655 346.995 154.597C344.372 156.044 343.061 159.042 340.622 160.801C338.183 162.561 335.193 162.887 332.282 163.043C329.371 163.2 326.342 163.239 323.681 164.438C321.019 165.637 318.829 168.453 319.38 171.294L420.241 170.317Z"   fill="#FAFAFA" >
</path>
<path d="M233.258 207.614C233.802 203.591 228.163 200.285 223.928 199.937C221.906 199.775 219.804 200.085 217.892 199.412C213.738 197.933 212.084 192.572 208.033 190.849C205.012 189.569 201.527 190.708 198.593 192.195C195.66 193.681 192.756 195.552 189.477 195.759C186.624 195.944 183.529 194.879 181.037 196.284C179.177 197.327 178.207 199.479 176.494 200.721C174.781 201.964 172.626 202.2 170.546 202.341C168.465 202.481 166.311 202.481 164.422 203.354C162.532 204.227 160.959 206.238 161.356 208.294L233.258 207.614Z"   fill="#FFFFFF" >
</path>
</g>
<defs>
<filter id="filter_f6ee33f1-b43d-48c7-9d26-14a96909bf7a" x="0" y="0" width="607.5882352941176" height="607.5882352941176" filterUnits="userSpaceOnUse" color-interpolation-filters="sRGB">
<feFlood flood-opacity="0" result="feFloodId_f6ee33f1-b43d-48c7-9d26-14a96909bf7a"/>
<feBlend mode="normal" in="SourceGraphic" in2="feFloodId_f6ee33f1-b43d-48c7-9d26-14a96909bf7a" result="shape"/>
<feGaussianBlur result="gaussian_blur_f6ee33f1-b43d-48c7-9d26-14a96909bf7a" stdDeviation="55.147058823529406"/>
</filter>
<mask id="mask-125f4da1-89bb-43ae-8067-5541c212360f" style="mask-type:alpha" maskUnits="userSpaceOnUse">
<circle cx="303.7941176470588" cy="303.7941176470588" r="208.5"   fill="#FFFFFF" >
</circle>
</mask>
<linearGradient id="linear_fill_a016e27a-d3da-49bd-885a-9010e05bc385" x1="309.98961325252753" y1="221.52385397518378" x2="309.98961325252753" y2="525.0939223345588" gradientUnits="userSpaceOnUse">
<stop offset="0" stop-color="#B5C0FF"  />
<stop offset="1" stop-color="#7F92F4"  />
</linearGradient>
<linearGradient id="linear_fill_17802331-0019-4e54-ada4-1c116732b66b" x1="321.2461440142463" y1="220.99211569393378" x2="321.2461440142463" y2="425.0660903033088" gradientUnits="userSpaceOnUse">
<stop offset="0" stop-color="#B5C0FF"  />
<stop offset="1" stop-color="#7F92F4"  />
</linearGradient>
</defs>
</svg>
