<?xml version="1.0" encoding="utf-8"?>
<!-- Generator: Adobe Illustrator 28.0.0, SVG Export Plug-In . SVG Version: 6.00 Build 0)  -->
<svg version="1.1" id="图层_1" xmlns="http://www.w3.org/2000/svg" xmlns:xlink="http://www.w3.org/1999/xlink" x="0px" y="0px"
	 viewBox="0 0 36 36" style="enable-background:new 0 0 36 36;" xml:space="preserve">
<style type="text/css">
	.st0{fill:#FFCC4D;stroke:#EDF2F6;stroke-dasharray:180;stroke-dashoffset:180;}
	.st1{fill-rule:evenodd;clip-rule:evenodd;fill:#292F33;stroke:#EDF2F6;stroke-dasharray:180;stroke-dashoffset:180;}
	.st2{fill:#664500;stroke:#EDF2F6;stroke-dasharray:180;stroke-dashoffset:180;}
</style>
<path class="st0" d="M36,18c0,9.9-8.1,18-18,18S0,27.9,0,18S8.1,0,18,0S36,8.1,36,18"/>
<path class="st1" d="M1.2,11c0.2,0.2,1.4,1,1.7,1.7c0.2,0.7,0.7,4.8,2.2,6c1.5,1.2,7.1,0.8,8.1,0.2c2.4-1.2,2.7-4.5,3.1-6.2
	c0.2-1,1.7-1,1.7-1s1.4,0,1.7,1c0.4,1.7,0.7,5,3.1,6.2c1.1,0.5,6.7,1,8.2-0.2c1.4-1.2,1.9-5.3,2.2-6c0.2-0.7,1.4-1.4,1.7-1.7
	c0.2-0.2,0.2-1.2,0-1.4c-0.5-0.5-6.1-0.9-12.2-0.2c-1.2,0.1-1.7,0.5-4.6,0.5c-2.9,0-3.3-0.3-4.6-0.5C7.4,8.7,1.7,9.1,1.2,9.6
	C1,9.8,1,10.8,1.2,11z"/>
<path class="st2" d="M27.3,23.6c-0.2-0.2-0.4-0.2-0.6,0c0,0-3.9,2.9-8.7,2.9c-4.8,0-8.7-2.9-8.7-2.9c-0.2-0.1-0.5-0.1-0.6,0
	c-0.2,0.2-0.2,0.4-0.1,0.6c0.1,0.2,3.2,5.2,9.4,5.2s9.3-5,9.4-5.2C27.6,24.1,27.5,23.8,27.3,23.6z"/>
</svg>
