<?xml version="1.0" encoding="utf-8"?>
<!-- Generator: Adobe Illustrator 28.0.0, SVG Export Plug-In . SVG Version: 6.00 Build 0)  -->
<svg version="1.1" id="图层_1" xmlns="http://www.w3.org/2000/svg" xmlns:xlink="http://www.w3.org/1999/xlink" x="0px" y="0px"
	 viewBox="0 0 36 36" style="enable-background:new 0 0 36 36;" xml:space="preserve">
<style type="text/css">
	.st0{fill:#E1E8ED;stroke:#EDF2F6;stroke-dasharray:180;stroke-dashoffset:180;}
	.st1{fill:#CCD6DD;stroke:#EDF2F6;stroke-dasharray:180;stroke-dashoffset:180;}
	.st2{fill:#99AAB5;stroke:#EDF2F6;stroke-dasharray:180;stroke-dashoffset:180;}
</style>
<path class="st0" d="M32.4,9.6l-9-9C23.1,0.2,22.6,0,22,0c-1.1,0-2,0.9-2,2c0,0.6,0.2,1.1,0.6,1.4l-3.9,3.9l9,9l3.9-3.9
	c0.4,0.4,0.9,0.6,1.4,0.6c1.1,0,2-0.9,2-2C33,10.4,32.8,9.9,32.4,9.6z"/>
<path class="st1" d="M22,0H7C4.8,0,3,1.8,3,4v28c0,2.2,1.8,4,4,4h22c2.2,0,4-1.8,4-4V11h-9c-1,0-2-1-2-2V0z"/>
<path class="st2" d="M22,0h-2v9c0,2.2,1.8,4,4,4h9v-2h-9c-1,0-2-1-2-2V0z M17,8c0,0.6-0.4,1-1,1H8C7.4,9,7,8.6,7,8s0.4-1,1-1h8
	C16.6,7,17,7.4,17,8z M17,12c0,0.6-0.4,1-1,1H8c-0.6,0-1-0.4-1-1s0.4-1,1-1h8C16.6,11,17,11.4,17,12z M29,16c0,0.6-0.4,1-1,1H8
	c-0.6,0-1-0.4-1-1s0.4-1,1-1h20C28.6,15,29,15.4,29,16z M29,20c0,0.6-0.4,1-1,1H8c-0.6,0-1-0.4-1-1s0.4-1,1-1h20
	C28.6,19,29,19.4,29,20z M29,24c0,0.6-0.4,1-1,1H8c-0.6,0-1-0.4-1-1s0.4-1,1-1h20C28.6,23,29,23.4,29,24z M29,28c0,0.6-0.4,1-1,1H8
	c-0.6,0-1-0.4-1-1s0.4-1,1-1h20C28.6,27,29,27.4,29,28z"/>
</svg>
