<svg xmlns="http://www.w3.org/2000/svg" xmlns:xlink="http://www.w3.org/1999/xlink" width="607.5882352941176" height="607.5882352941178" viewBox="0 0 607.5882352941176 607.5882352941178" fill="none">
<g filter="url(#filter_2e169780-a415-4824-9085-3e12fbf4f39d)">
<circle cx="303.7941176470588" cy="303.7941176470588" r="193.5"   fill="#C1CBFF" >
</circle>
</g>
<circle  cx="303.7941176470588" cy="303.7941176470588" r="221.5"    fill="#EFF2FF" >
</circle>
<path fill-rule="evenodd"  fill="rgba(255, 255, 255, 1)"  d="M303.794 525.294C426.125 525.294 525.294 426.125 525.294 303.794C525.294 181.463 426.125 82.2941 303.794 82.2941C181.463 82.2941 82.2941 181.463 82.2941 303.794C82.2941 426.125 181.463 525.294 303.794 525.294ZM303.794 94.2941C419.498 94.2941 513.294 188.09 513.294 303.794C513.294 419.498 419.498 513.294 303.794 513.294C188.09 513.294 94.2941 419.498 94.2941 303.794C94.2941 188.09 188.09 94.2941 303.794 94.2941Z">
</path>
<g  mask="url(#mask-be1906ba-723e-491a-8b54-d7bb524c5611)">
<path d="M425.563 293.718L349.537 217.692C346.337 214.682 342.091 213.037 337.698 213.104C333.306 213.17 329.112 214.945 326.005 218.05C322.899 221.156 321.123 225.349 321.055 229.742C320.986 234.134 322.63 238.38 325.639 241.581L293.041 274.179L369.067 350.206L401.666 317.607C404.834 320.776 409.131 322.557 413.612 322.558C415.83 322.558 418.027 322.122 420.077 321.273C422.127 320.424 423.99 319.18 425.559 317.612C427.128 316.043 428.373 314.181 429.222 312.131C430.072 310.081 430.509 307.884 430.51 305.666C430.51 303.447 430.073 301.25 429.225 299.2C428.376 297.15 427.132 295.287 425.563 293.718Z"   fill="#4D64DE" >
</path>
<path d="M337.584 212.742L210.873 212.742C201.911 212.742 193.317 216.302 186.98 222.638C180.644 228.975 177.084 237.57 177.084 246.531L177.084 483.057C177.084 492.019 180.644 500.613 186.98 506.95C193.317 513.287 201.911 516.847 210.873 516.847L396.716 516.847C405.677 516.847 414.272 513.287 420.608 506.95C426.945 500.613 430.505 492.019 430.505 483.057L430.505 305.663L354.479 305.663C346.031 305.663 337.584 297.215 337.584 288.768L337.584 212.742Z"   fill="url(#linear_fill_fd895af5-6aac-412a-bc00-424d3798d7a1)" >
</path>
<path d="M337.583 212.742L320.689 212.742L320.689 288.768C320.689 297.73 324.249 306.324 330.586 312.661C336.922 318.998 345.517 322.558 354.478 322.558L430.505 322.558L430.505 305.663L354.478 305.663C346.031 305.663 337.583 297.215 337.583 288.768L337.583 212.742Z"   fill="#FFFFFF" >
</path>
<path d="M295.347 306.742C295.347 308.982 294.457 311.131 292.872 312.715C291.288 314.299 289.14 315.189 286.899 315.189L219.32 315.189C217.08 315.189 214.931 314.299 213.347 312.715C211.763 311.131 210.873 308.982 210.873 306.742C210.873 304.501 211.763 302.353 213.347 300.768C214.931 299.184 217.08 298.294 219.32 298.294L286.899 298.294C289.14 298.294 291.288 299.184 292.872 300.768C294.457 302.353 295.347 304.501 295.347 306.742Z"   fill="#FFFFFF" >
</path>
<path d="M295.347 435.742C295.347 437.982 294.457 440.131 292.872 441.715C291.288 443.299 289.14 444.189 286.899 444.189L219.32 444.189C217.08 444.189 214.931 443.299 213.347 441.715C211.763 440.131 210.873 437.982 210.873 435.742C210.873 433.501 211.763 431.353 213.347 429.768C214.931 428.184 217.08 427.294 219.32 427.294L286.899 427.294C289.14 427.294 291.288 428.184 292.872 429.768C294.457 431.353 295.347 433.501 295.347 435.742Z"   fill="#FFFFFF" >
</path>
<path d="M396.715 347.742C396.715 349.982 395.825 352.131 394.241 353.715C392.657 355.299 390.508 356.189 388.268 356.189L219.32 356.189C217.08 356.189 214.931 355.299 213.347 353.715C211.763 352.131 210.873 349.982 210.873 347.742C210.873 345.501 211.763 343.353 213.347 341.768C214.931 340.184 217.08 339.294 219.32 339.294L388.268 339.294C390.508 339.294 392.657 340.184 394.241 341.768C395.825 343.353 396.715 345.501 396.715 347.742Z"   fill="#FFFFFF" >
</path>
<path d="M365.294 388.689C365.294 390.943 364.557 393.105 363.244 394.699C361.931 396.293 360.151 397.189 358.294 397.189L218.294 397.189C216.438 397.189 214.657 396.293 213.344 394.699C212.032 393.105 211.294 390.943 211.294 388.689C211.294 386.435 212.032 384.273 213.344 382.678C214.657 381.084 216.438 380.189 218.294 380.189L358.294 380.189C360.151 380.189 361.931 381.084 363.244 382.678C364.557 384.273 365.294 386.435 365.294 388.689Z"   fill="#FFFFFF" >
</path>
</g>
<g  mask="url(#mask-be1906ba-723e-491a-8b54-d7bb524c5611)">
<path d="M403.287 442.607L399.924 445.743L389.945 435.042L386.401 431.242L389.764 428.106L393.307 431.907L403.287 442.607Z"   fill="#B7C2FF" >
</path>
<path d="M386.401 431.239L389.773 428.103L393.307 431.907C392.771 432.449 392.219 432.983 391.658 433.507C391.097 434.031 390.524 434.546 389.945 435.039L386.401 431.239ZM396.921 442.441L400.292 439.306L403.826 443.11C403.29 443.652 402.738 444.185 402.177 444.709C401.616 445.234 401.043 445.749 400.464 446.242L396.921 442.441Z" fill-rule="evenodd"  fill="#5E73E4" >
</path>
<path d="M407.259 392.702C406.869 403.668 403.238 414.273 396.825 423.177C390.412 432.081 381.503 438.885 371.225 442.729C360.947 446.573 349.761 447.285 339.078 444.775C328.396 442.265 318.697 436.646 311.206 428.627C301.167 417.862 295.816 403.55 296.328 388.84C296.84 374.129 303.174 360.224 313.937 350.183C336.312 329.31 371.505 330.533 392.378 352.914C397.366 358.232 401.25 364.487 403.805 371.317C406.359 378.147 407.533 385.415 407.259 392.702L407.259 392.702Z"   fill="url(#linear_fill_acf55dc3-3418-41d6-8213-028d59c43ad5)" >
</path>
<path d="M396.893 392.361C396.487 404.043 391.564 415.112 383.159 423.236C374.755 431.361 363.526 435.906 351.837 435.916C351.303 435.916 350.767 435.907 350.227 435.888C347.425 435.792 344.637 435.438 341.9 434.831C336.687 433.672 331.725 431.588 327.249 428.676C324.155 426.659 321.318 424.274 318.801 421.571C310.732 412.804 306.458 401.201 306.912 389.294C307.366 377.387 312.511 366.143 321.224 358.015C329.938 349.888 341.512 345.536 353.422 345.911C365.332 346.286 376.61 351.356 384.795 360.016C386.599 361.948 388.232 364.034 389.675 366.25C392.589 370.722 394.677 375.682 395.839 380.892C396.676 384.655 397.03 388.509 396.893 392.361L396.893 392.361Z"   fill="url(#linear_fill_95ce8601-cf73-4362-a90e-1e15b5cbbf40)" >
</path>
<path d="M370.423 360.11C361.401 354.99 350.714 353.662 340.713 356.418C330.712 359.174 322.215 365.788 317.09 374.808C315.043 378.409 316.304 382.987 319.905 385.034C323.506 387.08 328.084 385.82 330.131 382.219C333.292 376.657 338.531 372.578 344.698 370.879C350.866 369.179 357.455 369.998 363.019 373.156C366.621 375.2 371.199 373.937 373.243 370.335C375.288 366.733 374.025 362.155 370.423 360.11Z" fill-rule="evenodd"  fill="#FFFFFF" >
</path>
<path d="M444.748 489.058C442.85 490.835 440.347 491.821 437.747 491.816L437.383 491.816C436.037 491.774 434.713 491.466 433.488 490.909C432.262 490.352 431.158 489.559 430.241 488.574L392.485 449.54L407.504 435.523L445.254 474.536C447.108 476.53 448.096 479.179 448.001 481.901C447.906 484.623 446.737 487.197 444.748 489.058L444.748 489.058Z"   fill="#4D64DE" >
</path>
<path d="M446.084 487.538C445.135 488.864 443.884 489.944 442.434 490.691C440.984 491.437 439.378 491.827 437.747 491.829L437.383 491.829C436.036 491.785 434.712 491.475 433.486 490.916C432.26 490.357 431.157 489.561 430.241 488.574L392.485 449.54L394.919 447.269L432.595 486.214C433.512 487.199 434.615 487.994 435.841 488.551C437.067 489.108 438.391 489.417 439.737 489.46L440.101 489.46C442.248 489.465 444.342 488.792 446.084 487.538L446.084 487.538Z"   fill="#B5C0FF" >
</path>
<path d="M406.232 439.085C405.646 439.671 405.646 440.621 406.232 441.206L441.784 476.758C442.37 477.344 443.319 477.344 443.905 476.758C444.491 476.172 444.491 475.223 443.905 474.637L408.354 439.085C407.768 438.499 406.818 438.499 406.232 439.085Z" fill-rule="evenodd"  fill="#FFFFFF" >
</path>
</g>
<g filter="url(#filter_59d0b7c0-4a90-4881-99da-169c1c19ccd0)">
<circle cx="493.7941176470588" cy="192.79411764705878" r="48.5"   fill="#FF7070" fill-opacity="0.7">
</circle>
</g>
<circle cx="482.7941176470588" cy="181.79411764705878" r="48.5"   fill="url(#linear_fill_44a6e4a3-a0cc-40da-b8c4-60608a52a74f)" >
</circle>
<path     fill="#FFFFFF"  d="M484.415 182.294L495.022 171.688C495.303 171.406 495.461 171.025 495.461 170.627C495.461 170.229 495.303 169.848 495.022 169.566C494.741 169.285 494.359 169.127 493.961 169.127C493.564 169.127 493.182 169.285 492.901 169.566L482.294 180.173L471.688 169.566C471.406 169.285 471.025 169.127 470.627 169.127C470.229 169.127 469.848 169.285 469.566 169.566C469.285 169.848 469.127 170.229 469.127 170.627C469.127 171.025 469.285 171.406 469.566 171.688L480.173 182.294L469.566 192.901C469.285 193.182 469.127 193.564 469.127 193.961C469.127 194.359 469.285 194.741 469.566 195.022C469.848 195.303 470.229 195.461 470.627 195.461C471.025 195.461 471.406 195.303 471.688 195.022L482.294 184.415L492.901 195.022C493.182 195.303 493.564 195.461 493.961 195.461C494.359 195.461 494.741 195.303 495.022 195.022C495.303 194.741 495.461 194.359 495.461 193.961C495.461 193.564 495.303 193.182 495.022 192.901L484.415 182.294Z">
</path>
<path fill-rule="evenodd"  fill="rgba(255, 255, 255, 1)"  d="M487.244 182.294L496.436 173.102Q496.929 172.609 497.195 171.966Q497.461 171.323 497.461 170.627Q497.461 169.931 497.195 169.287Q496.929 168.644 496.436 168.152Q495.944 167.66 495.301 167.393Q494.658 167.127 493.961 167.127Q493.265 167.127 492.622 167.393Q491.979 167.66 491.487 168.152L482.294 177.344L473.102 168.152Q472.609 167.66 471.966 167.393Q471.323 167.127 470.627 167.127Q469.931 167.127 469.287 167.393Q468.644 167.66 468.152 168.152Q467.66 168.644 467.393 169.287Q467.127 169.931 467.127 170.627Q467.127 171.323 467.393 171.966Q467.66 172.609 468.152 173.102L477.344 182.294L468.152 191.487Q467.66 191.979 467.393 192.622Q467.127 193.265 467.127 193.961Q467.127 194.658 467.393 195.301Q467.66 195.944 468.152 196.436Q468.644 196.929 469.287 197.195Q469.931 197.461 470.627 197.461Q471.323 197.461 471.966 197.195Q472.609 196.929 473.102 196.436L482.294 187.244L491.487 196.436Q491.979 196.929 492.622 197.195Q493.265 197.461 493.961 197.461Q494.658 197.461 495.301 197.195Q495.944 196.929 496.436 196.436Q496.928 195.944 497.195 195.301Q497.461 194.658 497.461 193.961Q497.461 193.265 497.195 192.622Q496.928 191.979 496.436 191.487L487.244 182.294ZM485.83 183.708L484.415 182.294L495.022 171.688C495.303 171.406 495.461 171.025 495.461 170.627C495.461 170.229 495.303 169.848 495.022 169.566C494.741 169.285 494.359 169.127 493.961 169.127C493.564 169.127 493.182 169.285 492.901 169.566L482.294 180.173L471.688 169.566C471.406 169.285 471.025 169.127 470.627 169.127C470.229 169.127 469.848 169.285 469.566 169.566C469.285 169.848 469.127 170.229 469.127 170.627C469.127 171.025 469.285 171.406 469.566 171.688L480.173 182.294L469.566 192.901C469.285 193.182 469.127 193.564 469.127 193.961C469.127 194.359 469.285 194.741 469.566 195.022C469.848 195.303 470.229 195.461 470.627 195.461C471.025 195.461 471.406 195.303 471.688 195.022L482.294 184.415L492.901 195.022C493.182 195.303 493.564 195.461 493.961 195.461C494.359 195.461 494.741 195.303 495.022 195.022C495.303 194.741 495.461 194.359 495.461 193.961C495.461 193.564 495.303 193.182 495.022 192.901L485.83 183.708Z">
</path>
<defs>
<filter id="filter_2e169780-a415-4824-9085-3e12fbf4f39d" x="0" y="0" width="607.5882352941176" height="607.5882352941178" filterUnits="userSpaceOnUse" color-interpolation-filters="sRGB">
<feGaussianBlur result="gaussian_blur_2e169780-a415-4824-9085-3e12fbf4f39d" stdDeviation="55.147058823529406"/>
</filter>
<mask id="mask-be1906ba-723e-491a-8b54-d7bb524c5611" style="mask-type:alpha" maskUnits="userSpaceOnUse">
<circle cx="303.7941176470588" cy="303.7941176470588" r="208.5"   fill="#FFFFFF" >
</circle>
</mask>
<linearGradient id="linear_fill_fd895af5-6aac-412a-bc00-424d3798d7a1" x1="303.7940947588752" y1="516.8468520220588" x2="303.7940947588752" y2="212.74187155330878" gradientUnits="userSpaceOnUse">
<stop offset="0" stop-color="#B5C0FF"  />
<stop offset="1" stop-color="#8895E8"  />
</linearGradient>
<linearGradient id="linear_fill_acf55dc3-3418-41d6-8213-028d59c43ad5" x1="351.7960898455451" y1="335.2941176470588" x2="351.7960898455451" y2="446.2469985064338" gradientUnits="userSpaceOnUse">
<stop offset="0" stop-color="#B7C2FF"  />
<stop offset="1" stop-color="#4D64DE"  />
</linearGradient>
<linearGradient id="linear_fill_95ce8601-cf73-4362-a90e-1e15b5cbbf40" x1="351.90036459530097" y1="345.8888442095588" x2="351.90036459530097" y2="435.9159438189338" gradientUnits="userSpaceOnUse">
<stop offset="0" stop-color="#EFF2FF"  />
<stop offset="1" stop-color="#FFFFFF"  />
</linearGradient>
<filter id="filter_59d0b7c0-4a90-4881-99da-169c1c19ccd0" x="415.88235294117646" y="114.88235294117635" width="155.82352941176472" height="155.82352941176487" filterUnits="userSpaceOnUse" color-interpolation-filters="sRGB">
<feGaussianBlur result="gaussian_blur_59d0b7c0-4a90-4881-99da-169c1c19ccd0" stdDeviation="14.705882352941176"/>
</filter>
<linearGradient id="linear_fill_44a6e4a3-a0cc-40da-b8c4-60608a52a74f" x1="482.7941176470588" y1="133.29411764705878" x2="482.7941176470588" y2="230.29411764705878" gradientUnits="userSpaceOnUse">
<stop offset="0" stop-color="#FF9898"  />
<stop offset="1" stop-color="#FF4F4F"  />
</linearGradient>
</defs>
</svg>
