<?xml version="1.0" encoding="utf-8"?>
<!-- Generator: Adobe Illustrator 28.0.0, SVG Export Plug-In . SVG Version: 6.00 Build 0)  -->
<svg version="1.1" id="图层_1" xmlns="http://www.w3.org/2000/svg" xmlns:xlink="http://www.w3.org/1999/xlink" x="0px" y="0px"
	 viewBox="0 0 36 36" style="enable-background:new 0 0 36 36;" xml:space="preserve">
<style type="text/css">
	.st0{fill:#FFD983;stroke:#EDF2F6;stroke-dasharray:180;stroke-dashoffset:180;}
	.st1{fill:#D99E82;stroke:#EDF2F6;stroke-dasharray:180;stroke-dashoffset:180;}
	.st2{fill:#C1694F;stroke:#EDF2F6;stroke-dasharray:180;stroke-dashoffset:180;}
</style>
<path class="st0" d="M32,20.2L17.3,5.7C16.7,5.1,15.8,5,15,5H4.9C3,5,2,6,2,7.9V18c0,0.9,0.1,1.7,0.7,2.4L17.3,35
	c1.3,1.3,3.4,1.3,4.7,0L32,24.9C33.4,23.6,33.3,21.5,32,20.2z M8.4,11.4c-0.6,0.6-1.5,0.6-2.1,0s-0.6-1.5,0-2.1
	c0.6-0.6,1.5-0.6,2.1,0C9,9.9,9,10.8,8.4,11.4z"/>
<path class="st1" d="M10,7.8c-1.4-1.4-3.7-1.4-5.2,0c-1.4,1.4-1.4,3.7,0,5.2c1.4,1.4,3.7,1.4,5.2,0C11.4,11.5,11.4,9.2,10,7.8z
	 M8.4,11.4c-0.6,0.6-1.5,0.6-2.1,0s-0.6-1.5,0-2.1c0.6-0.6,1.5-0.6,2.1,0S9,10.8,8.4,11.4z"/>
<path class="st2" d="M8.5,10.5c-0.4,0.4-1,0.4-1.4,0c-0.4-0.4-0.4-1,0-1.4l8.5-8.5c0.4-0.4,1-0.4,1.4,0c0.4,0.4,0.4,1,0,1.4
	C17,2,8.5,10.5,8.5,10.5z"/>
</svg>
