<?xml version="1.0" encoding="utf-8"?>
<!-- Generator: Adobe Illustrator 28.0.0, SVG Export Plug-In . SVG Version: 6.00 Build 0)  -->
<svg version="1.1" id="图层_1" xmlns="http://www.w3.org/2000/svg" xmlns:xlink="http://www.w3.org/1999/xlink" x="0px" y="0px"
	 viewBox="0 0 36 36" style="enable-background:new 0 0 36 36;" xml:space="preserve">
<style type="text/css">
	.st0{fill:#99AAB5;stroke:#EDF2F6;stroke-dasharray:180;stroke-dashoffset:180;}
	.st1{fill:#E1E8ED;stroke:#EDF2F6;stroke-dasharray:180;stroke-dashoffset:180;}
	.st2{fill:#66757F;stroke:#EDF2F6;stroke-dasharray:180;stroke-dashoffset:180;}
</style>
<circle class="st0" cx="18" cy="18" r="18"/>
<circle class="st1" cx="18" cy="18" r="14"/>
<path class="st2" d="M19,18c0,0.6-0.4,1-1,1c-0.6,0-1-0.4-1-1V7c0-0.6,0.4-1,1-1c0.6,0,1,0.4,1,1V18z"/>
<path class="st2" d="M28,18c0,0.6-0.4,1-1,1h-9c-0.6,0-1-0.4-1-1s0.4-1,1-1h9C27.6,17,28,17.4,28,18z"/>
</svg>
