<?xml version="1.0" encoding="utf-8"?>
<!-- Generator: Adobe Illustrator 28.0.0, SVG Export Plug-In . SVG Version: 6.00 Build 0)  -->
<svg version="1.1" id="图层_1" xmlns="http://www.w3.org/2000/svg" xmlns:xlink="http://www.w3.org/1999/xlink" x="0px" y="0px"
	 viewBox="0 0 36 36" style="enable-background:new 0 0 36 36;" xml:space="preserve">
<style type="text/css">
	.st0{fill:#C00000;stroke:#EDF2F6;stroke-dasharray:180;stroke-dashoffset:180;}
</style>
<path class="st0" d="M25.7,11.1L18.8,0.9C18.1,0,17.2,0,16.6,1l-6.4,10.1c-0.6,0.9-0.2,1.6,0.9,1.6H13v3.5c0,1.1,0.9,2,2,2h6
	c1.1,0,2-0.9,2-2v-3.5h1.9C25.9,12.7,26.3,12,25.7,11.1z M3.6,23.8H1.4c-1,0-1.4-0.7-1.4-1.4C0,21.7,0.5,21,1.4,21h7.5
	c0.9,0,1.4,0.7,1.4,1.4c0,0.7-0.4,1.4-1.4,1.4H6.6V34c0,1-0.7,1.6-1.5,1.6S3.6,35,3.6,34L3.6,23.8L3.6,23.8z M10.4,28.3
	c0-4.2,2.8-7.5,7-7.5c4.1,0,7,3.4,7,7.5c0,4.2-2.8,7.5-7,7.5C13.2,35.7,10.4,32.5,10.4,28.3z M21.2,28.3c0-2.5-1.3-4.7-3.8-4.7
	s-3.8,2.2-3.8,4.7c0,2.5,1.2,4.7,3.8,4.7C19.9,32.9,21.2,30.7,21.2,28.3z M25.6,22.6c0-1,0.6-1.6,1.6-1.6h3.6c3,0,5.2,1.9,5.2,4.9
	c0,3-2.3,4.8-5.1,4.8h-2.3V34c0,1-0.7,1.6-1.5,1.6c-0.9,0-1.5-0.6-1.5-1.6L25.6,22.6L25.6,22.6z M28.7,28h2.1c1.3,0,2.1-0.9,2.1-2.2
	c0-1.2-0.8-2.2-2.1-2.2h-2.1V28z"/>
</svg>
