<?xml version="1.0" encoding="utf-8"?>
<!-- Generator: Adobe Illustrator 28.0.0, SVG Export Plug-In . SVG Version: 6.00 Build 0)  -->
<svg version="1.1" id="图层_1" xmlns="http://www.w3.org/2000/svg" xmlns:xlink="http://www.w3.org/1999/xlink" x="0px" y="0px"
	 viewBox="0 0 2038.6 288.2" style="enable-background:new 0 0 2038.6 288.2;" xml:space="preserve">

<path class="st0" d="M1678.2,0c4.6,0,8.9,0,13.5,0c1.7,0.5,3.5,0.1,5.2,0.2c1.1,0,2.2,0,3.3,0c0.9,0,1.9,0,2.8,0
	c18.5,0,36.8,2.1,54.9,5.5c20.8,4,41.3,9.3,61.5,15.7c25.9,8.1,51.3,17.5,76.6,27.1c19.1,7.2,38.1,14.4,57.3,21.3
	c22.6,8.1,45.4,15.4,68.6,21.5c4.3,1.1,15.9,3.7,16.7,5.1v191.8H0.3c-0.5-0.8-0.2-1.7-0.2-2.6c0-62.2,0-124.5,0-186.7
	c0-1-0.4-2.1,0.5-3c1.5-1,3.2-0.7,4.9-0.5c12.6,1.4,25.2,2.8,37.9,4.2c11,1.2,21.9,2.6,32.9,3.6c8.3,0.8,16.5,1.5,24.8,2.1
	c9.8,0.8,19.6,1,29.4,1.8c0.3,0,0.6,0,0.9,0c14.1,0.2,28.1,1,42.2,0.4c14.2-0.5,28.4-1,42.6-2.2c25.4-2.1,50.5-5.7,75.3-11.3
	c14.5-3.2,28.8-7.2,43-11.7c30.8-9.6,61-21.1,91.2-32.6c25.3-9.6,50.8-19,76.6-27.3c20.5-6.5,41.2-12.3,62.4-16.3
	c11.9-2.3,23.9-4.4,36-5.3c7.3-0.6,14.7-0.7,22-0.8c1,0,1.9,0,2.9,0c1.1,0,2.2,0,3.3,0c1.8-0.1,3.6,0.3,5.3-0.2c4.6,0,8.9,0,13.5,0
	c1.7,0.5,3.5,0.1,5.2,0.2c1.1,0,2.2,0,3.3,0c1.1,0,2.1,0,3.2,0c20.3,0,40.3,2.3,60.2,6c25.8,4.7,51,11.3,75.9,19.5
	c21.7,7.1,43.1,15.3,64,24.5c15.2,6.6,30.1,13.7,45,21c11.4,5.6,22.8,11.2,34.2,17c10,5.1,20.1,10.3,30.2,15.2
	c26.3,12.9,52.6,25.6,79.9,36.1c23.2,8.9,46.8,16.5,71.2,20.9c9.6,1.7,19.2,3,29,3.7c8.1,0.6,16.1,0.6,24.2,0.2
	c13.4-0.7,26.7-2.6,39.9-5.4c21.3-4.5,41.9-11.1,62.1-18.8c16.7-6.4,33-13.6,49.1-21.1c8.2-3.8,16.3-7.8,24.4-11.7
	c8.3-4,16.6-7.9,24.7-12.2c14.5-7.6,29.2-14.9,43.9-22.1c26-12.8,52.2-24.9,79.3-35.3c26.4-10.1,53.4-18.8,80.9-25.4
	c18.9-4.5,38-7.9,57.3-10.3c7.7-0.9,15.4-1.2,23.2-1.4c2.7-0.1,5.4-0.4,8.1-0.3c0.9,0,1.9,0,2.8,0c1.2,0,2.5,0,3.7,0
	C1674.6,0.1,1676.4,0.5,1678.2,0z"/>
<path class="st0" d="M1261.5,212.1"/>
<path class="st0" d="M1262.9,213.2"/>
</svg>
